%TF.GenerationSoftware,KiCad,Pcbnew,(5.1.10)-1*%
%TF.CreationDate,2021-12-11T16:43:53+01:00*%
%TF.ProjectId,qura_pump_pcb,71757261-5f70-4756-9d70-5f7063622e6b,rev?*%
%TF.SameCoordinates,Original*%
%TF.FileFunction,Soldermask,Bot*%
%TF.FilePolarity,Negative*%
%FSLAX46Y46*%
G04 Gerber Fmt 4.6, Leading zero omitted, Abs format (unit mm)*
G04 Created by KiCad (PCBNEW (5.1.10)-1) date 2021-12-11 16:43:53*
%MOMM*%
%LPD*%
G01*
G04 APERTURE LIST*
%ADD10C,6.000000*%
%ADD11O,2.000000X1.700000*%
%ADD12O,1.700000X2.000000*%
%ADD13O,1.400000X1.400000*%
%ADD14C,1.400000*%
%ADD15C,1.524000*%
G04 APERTURE END LIST*
D10*
%TO.C,REF\u002A\u002A*%
X177292000Y-79756000D03*
%TD*%
%TO.C,REF\u002A\u002A*%
X141986000Y-103378000D03*
%TD*%
D11*
%TO.C,CPWR*%
X154686000Y-64048000D03*
G36*
G01*
X155436000Y-67398000D02*
X153936000Y-67398000D01*
G75*
G02*
X153686000Y-67148000I0J250000D01*
G01*
X153686000Y-65948000D01*
G75*
G02*
X153936000Y-65698000I250000J0D01*
G01*
X155436000Y-65698000D01*
G75*
G02*
X155686000Y-65948000I0J-250000D01*
G01*
X155686000Y-67148000D01*
G75*
G02*
X155436000Y-67398000I-250000J0D01*
G01*
G37*
%TD*%
D12*
%TO.C,C34*%
X160782000Y-113284000D03*
G36*
G01*
X164132000Y-112534000D02*
X164132000Y-114034000D01*
G75*
G02*
X163882000Y-114284000I-250000J0D01*
G01*
X162682000Y-114284000D01*
G75*
G02*
X162432000Y-114034000I0J250000D01*
G01*
X162432000Y-112534000D01*
G75*
G02*
X162682000Y-112284000I250000J0D01*
G01*
X163882000Y-112284000D01*
G75*
G02*
X164132000Y-112534000I0J-250000D01*
G01*
G37*
%TD*%
%TO.C,C56*%
X136104000Y-82042000D03*
G36*
G01*
X132754000Y-82792000D02*
X132754000Y-81292000D01*
G75*
G02*
X133004000Y-81042000I250000J0D01*
G01*
X134204000Y-81042000D01*
G75*
G02*
X134454000Y-81292000I0J-250000D01*
G01*
X134454000Y-82792000D01*
G75*
G02*
X134204000Y-83042000I-250000J0D01*
G01*
X133004000Y-83042000D01*
G75*
G02*
X132754000Y-82792000I0J250000D01*
G01*
G37*
%TD*%
D13*
%TO.C,Rs2*%
X188976000Y-94488000D03*
D14*
X188976000Y-86868000D03*
%TD*%
D13*
%TO.C,Rs6*%
X129286000Y-74676000D03*
D14*
X136906000Y-74676000D03*
%TD*%
D13*
%TO.C,Rs5*%
X134366000Y-109474000D03*
D14*
X134366000Y-101854000D03*
%TD*%
D13*
%TO.C,Rs4*%
X162306000Y-120650000D03*
D14*
X154686000Y-120650000D03*
%TD*%
D13*
%TO.C,Rs3*%
X171196000Y-114808000D03*
D14*
X178816000Y-114808000D03*
%TD*%
D13*
%TO.C,Rs1*%
X179070000Y-63754000D03*
D14*
X171450000Y-63754000D03*
%TD*%
D13*
%TO.C,R6*%
X140208000Y-63754000D03*
D14*
X147828000Y-63754000D03*
%TD*%
D13*
%TO.C,R5*%
X127254000Y-91694000D03*
D14*
X127254000Y-84074000D03*
%TD*%
D13*
%TO.C,R4*%
X145796000Y-114808000D03*
D14*
X138176000Y-114808000D03*
%TD*%
D13*
%TO.C,R3*%
X185166000Y-103886000D03*
D14*
X185166000Y-96266000D03*
%TD*%
D13*
%TO.C,R2*%
X182118000Y-75946000D03*
D14*
X182118000Y-68326000D03*
%TD*%
D13*
%TO.C,R1*%
X161798000Y-57658000D03*
D14*
X154178000Y-57658000D03*
%TD*%
D15*
%TO.C,OPB730F6*%
X138200000Y-70510000D03*
X140740000Y-70510000D03*
X139470000Y-69240000D03*
X139470000Y-71780000D03*
%TD*%
%TO.C,OPB730F5*%
X131240000Y-96530000D03*
X133780000Y-96530000D03*
X132510000Y-95260000D03*
X132510000Y-97800000D03*
%TD*%
%TO.C,OPB730F4*%
X150280000Y-115570000D03*
X152820000Y-115570000D03*
X151550000Y-114300000D03*
X151550000Y-116840000D03*
%TD*%
%TO.C,OPB730F3*%
X176290000Y-108600000D03*
X178830000Y-108600000D03*
X177560000Y-107330000D03*
X177560000Y-109870000D03*
%TD*%
%TO.C,OPB730F2*%
X183260000Y-82590000D03*
X185800000Y-82590000D03*
X184530000Y-81320000D03*
X184530000Y-83860000D03*
%TD*%
%TO.C,OPB730F1*%
X164210000Y-63540000D03*
X166750000Y-63540000D03*
X165480000Y-62270000D03*
X165480000Y-64810000D03*
%TD*%
D11*
%TO.C,C12*%
X175514000Y-72604000D03*
G36*
G01*
X174764000Y-69254000D02*
X176264000Y-69254000D01*
G75*
G02*
X176514000Y-69504000I0J-250000D01*
G01*
X176514000Y-70704000D01*
G75*
G02*
X176264000Y-70954000I-250000J0D01*
G01*
X174764000Y-70954000D01*
G75*
G02*
X174514000Y-70704000I0J250000D01*
G01*
X174514000Y-69504000D01*
G75*
G02*
X174764000Y-69254000I250000J0D01*
G01*
G37*
%TD*%
M02*
