%TF.GenerationSoftware,KiCad,Pcbnew,(5.1.10)-1*%
%TF.CreationDate,2021-12-11T16:43:53+01:00*%
%TF.ProjectId,qura_pump_pcb,71757261-5f70-4756-9d70-5f7063622e6b,rev?*%
%TF.SameCoordinates,Original*%
%TF.FileFunction,Copper,L2,Bot*%
%TF.FilePolarity,Positive*%
%FSLAX46Y46*%
G04 Gerber Fmt 4.6, Leading zero omitted, Abs format (unit mm)*
G04 Created by KiCad (PCBNEW (5.1.10)-1) date 2021-12-11 16:43:53*
%MOMM*%
%LPD*%
G01*
G04 APERTURE LIST*
%TA.AperFunction,ComponentPad*%
%ADD10C,6.000000*%
%TD*%
%TA.AperFunction,ComponentPad*%
%ADD11O,2.000000X1.700000*%
%TD*%
%TA.AperFunction,ComponentPad*%
%ADD12O,1.700000X2.000000*%
%TD*%
%TA.AperFunction,ComponentPad*%
%ADD13O,1.400000X1.400000*%
%TD*%
%TA.AperFunction,ComponentPad*%
%ADD14C,1.400000*%
%TD*%
%TA.AperFunction,ComponentPad*%
%ADD15C,1.524000*%
%TD*%
%TA.AperFunction,Conductor*%
%ADD16C,0.250000*%
%TD*%
G04 APERTURE END LIST*
D10*
%TO.P,REF\u002A\u002A,1*%
%TO.N,N/C*%
X177292000Y-79756000D03*
%TD*%
%TO.P,REF\u002A\u002A,1*%
%TO.N,N/C*%
X141986000Y-103378000D03*
%TD*%
D11*
%TO.P,CPWR,2*%
%TO.N,GND*%
X154686000Y-64048000D03*
%TO.P,CPWR,1*%
%TO.N,+3V3*%
%TA.AperFunction,ComponentPad*%
G36*
G01*
X155436000Y-67398000D02*
X153936000Y-67398000D01*
G75*
G02*
X153686000Y-67148000I0J250000D01*
G01*
X153686000Y-65948000D01*
G75*
G02*
X153936000Y-65698000I250000J0D01*
G01*
X155436000Y-65698000D01*
G75*
G02*
X155686000Y-65948000I0J-250000D01*
G01*
X155686000Y-67148000D01*
G75*
G02*
X155436000Y-67398000I-250000J0D01*
G01*
G37*
%TD.AperFunction*%
%TD*%
D12*
%TO.P,C34,2*%
%TO.N,Net-(C34-Pad2)*%
X160782000Y-113284000D03*
%TO.P,C34,1*%
%TO.N,Net-(C34-Pad1)*%
%TA.AperFunction,ComponentPad*%
G36*
G01*
X164132000Y-112534000D02*
X164132000Y-114034000D01*
G75*
G02*
X163882000Y-114284000I-250000J0D01*
G01*
X162682000Y-114284000D01*
G75*
G02*
X162432000Y-114034000I0J250000D01*
G01*
X162432000Y-112534000D01*
G75*
G02*
X162682000Y-112284000I250000J0D01*
G01*
X163882000Y-112284000D01*
G75*
G02*
X164132000Y-112534000I0J-250000D01*
G01*
G37*
%TD.AperFunction*%
%TD*%
%TO.P,C56,2*%
%TO.N,Net-(C56-Pad2)*%
X136104000Y-82042000D03*
%TO.P,C56,1*%
%TO.N,Net-(C56-Pad1)*%
%TA.AperFunction,ComponentPad*%
G36*
G01*
X132754000Y-82792000D02*
X132754000Y-81292000D01*
G75*
G02*
X133004000Y-81042000I250000J0D01*
G01*
X134204000Y-81042000D01*
G75*
G02*
X134454000Y-81292000I0J-250000D01*
G01*
X134454000Y-82792000D01*
G75*
G02*
X134204000Y-83042000I-250000J0D01*
G01*
X133004000Y-83042000D01*
G75*
G02*
X132754000Y-82792000I0J250000D01*
G01*
G37*
%TD.AperFunction*%
%TD*%
D13*
%TO.P,Rs2,2*%
%TO.N,GND*%
X188976000Y-94488000D03*
D14*
%TO.P,Rs2,1*%
%TO.N,Net-(C12-Pad2)*%
X188976000Y-86868000D03*
%TD*%
D13*
%TO.P,Rs6,2*%
%TO.N,GND*%
X129286000Y-74676000D03*
D14*
%TO.P,Rs6,1*%
%TO.N,Net-(C56-Pad2)*%
X136906000Y-74676000D03*
%TD*%
D13*
%TO.P,Rs5,2*%
%TO.N,GND*%
X134366000Y-109474000D03*
D14*
%TO.P,Rs5,1*%
%TO.N,Net-(C56-Pad1)*%
X134366000Y-101854000D03*
%TD*%
D13*
%TO.P,Rs4,2*%
%TO.N,GND*%
X162306000Y-120650000D03*
D14*
%TO.P,Rs4,1*%
%TO.N,Net-(C34-Pad2)*%
X154686000Y-120650000D03*
%TD*%
D13*
%TO.P,Rs3,2*%
%TO.N,GND*%
X171196000Y-114808000D03*
D14*
%TO.P,Rs3,1*%
%TO.N,Net-(C34-Pad1)*%
X178816000Y-114808000D03*
%TD*%
D13*
%TO.P,Rs1,2*%
%TO.N,GND*%
X179070000Y-63754000D03*
D14*
%TO.P,Rs1,1*%
%TO.N,Net-(C12-Pad1)*%
X171450000Y-63754000D03*
%TD*%
D13*
%TO.P,R6,2*%
%TO.N,Net-(OPB730F6-Pad3)*%
X140208000Y-63754000D03*
D14*
%TO.P,R6,1*%
%TO.N,GND*%
X147828000Y-63754000D03*
%TD*%
D13*
%TO.P,R5,2*%
%TO.N,Net-(OPB730F5-Pad3)*%
X127254000Y-91694000D03*
D14*
%TO.P,R5,1*%
%TO.N,GND*%
X127254000Y-84074000D03*
%TD*%
D13*
%TO.P,R4,2*%
%TO.N,Net-(OPB730F4-Pad3)*%
X145796000Y-114808000D03*
D14*
%TO.P,R4,1*%
%TO.N,GND*%
X138176000Y-114808000D03*
%TD*%
D13*
%TO.P,R3,2*%
%TO.N,Net-(OPB730F3-Pad3)*%
X185166000Y-103886000D03*
D14*
%TO.P,R3,1*%
%TO.N,GND*%
X185166000Y-96266000D03*
%TD*%
D13*
%TO.P,R2,2*%
%TO.N,Net-(OPB730F2-Pad3)*%
X182118000Y-75946000D03*
D14*
%TO.P,R2,1*%
%TO.N,GND*%
X182118000Y-68326000D03*
%TD*%
D13*
%TO.P,R1,2*%
%TO.N,Net-(OPB730F1-Pad3)*%
X161798000Y-57658000D03*
D14*
%TO.P,R1,1*%
%TO.N,GND*%
X154178000Y-57658000D03*
%TD*%
D15*
%TO.P,OPB730F6,2*%
%TO.N,+3V3*%
X138200000Y-70510000D03*
%TO.P,OPB730F6,4*%
X140740000Y-70510000D03*
%TO.P,OPB730F6,3*%
%TO.N,Net-(OPB730F6-Pad3)*%
X139470000Y-69240000D03*
%TO.P,OPB730F6,1*%
%TO.N,Net-(C56-Pad2)*%
X139470000Y-71780000D03*
%TD*%
%TO.P,OPB730F5,2*%
%TO.N,+3V3*%
X131240000Y-96530000D03*
%TO.P,OPB730F5,4*%
X133780000Y-96530000D03*
%TO.P,OPB730F5,3*%
%TO.N,Net-(OPB730F5-Pad3)*%
X132510000Y-95260000D03*
%TO.P,OPB730F5,1*%
%TO.N,Net-(C56-Pad1)*%
X132510000Y-97800000D03*
%TD*%
%TO.P,OPB730F4,2*%
%TO.N,+3V3*%
X150280000Y-115570000D03*
%TO.P,OPB730F4,4*%
X152820000Y-115570000D03*
%TO.P,OPB730F4,3*%
%TO.N,Net-(OPB730F4-Pad3)*%
X151550000Y-114300000D03*
%TO.P,OPB730F4,1*%
%TO.N,Net-(C34-Pad2)*%
X151550000Y-116840000D03*
%TD*%
%TO.P,OPB730F3,2*%
%TO.N,+3V3*%
X176290000Y-108600000D03*
%TO.P,OPB730F3,4*%
X178830000Y-108600000D03*
%TO.P,OPB730F3,3*%
%TO.N,Net-(OPB730F3-Pad3)*%
X177560000Y-107330000D03*
%TO.P,OPB730F3,1*%
%TO.N,Net-(C34-Pad1)*%
X177560000Y-109870000D03*
%TD*%
%TO.P,OPB730F2,2*%
%TO.N,+3V3*%
X183260000Y-82590000D03*
%TO.P,OPB730F2,4*%
X185800000Y-82590000D03*
%TO.P,OPB730F2,3*%
%TO.N,Net-(OPB730F2-Pad3)*%
X184530000Y-81320000D03*
%TO.P,OPB730F2,1*%
%TO.N,Net-(C12-Pad2)*%
X184530000Y-83860000D03*
%TD*%
%TO.P,OPB730F1,2*%
%TO.N,+3V3*%
X164210000Y-63540000D03*
%TO.P,OPB730F1,4*%
X166750000Y-63540000D03*
%TO.P,OPB730F1,3*%
%TO.N,Net-(OPB730F1-Pad3)*%
X165480000Y-62270000D03*
%TO.P,OPB730F1,1*%
%TO.N,Net-(C12-Pad1)*%
X165480000Y-64810000D03*
%TD*%
D11*
%TO.P,C12,2*%
%TO.N,Net-(C12-Pad2)*%
X175514000Y-72604000D03*
%TO.P,C12,1*%
%TO.N,Net-(C12-Pad1)*%
%TA.AperFunction,ComponentPad*%
G36*
G01*
X174764000Y-69254000D02*
X176264000Y-69254000D01*
G75*
G02*
X176514000Y-69504000I0J-250000D01*
G01*
X176514000Y-70704000D01*
G75*
G02*
X176264000Y-70954000I-250000J0D01*
G01*
X174764000Y-70954000D01*
G75*
G02*
X174514000Y-70704000I0J250000D01*
G01*
X174514000Y-69504000D01*
G75*
G02*
X174764000Y-69254000I250000J0D01*
G01*
G37*
%TD.AperFunction*%
%TD*%
D16*
%TO.N,GND*%
X144278998Y-114808000D02*
X151898998Y-122428000D01*
X138176000Y-114808000D02*
X144278998Y-114808000D01*
X160528000Y-122428000D02*
X162306000Y-120650000D01*
X151898998Y-122428000D02*
X160528000Y-122428000D01*
X165354000Y-120650000D02*
X171196000Y-114808000D01*
X162306000Y-120650000D02*
X165354000Y-120650000D01*
X138176000Y-113284000D02*
X134366000Y-109474000D01*
X138176000Y-114808000D02*
X138176000Y-113284000D01*
X134366000Y-109474000D02*
X134366000Y-104902000D01*
X134366000Y-104902000D02*
X128778000Y-99314000D01*
X128778000Y-85598000D02*
X127254000Y-84074000D01*
X128778000Y-99314000D02*
X128778000Y-85598000D01*
X127254000Y-76708000D02*
X129286000Y-74676000D01*
X127254000Y-84074000D02*
X127254000Y-76708000D01*
X129286000Y-74676000D02*
X137668000Y-66294000D01*
X145288000Y-66294000D02*
X147828000Y-63754000D01*
X137668000Y-66294000D02*
X145288000Y-66294000D01*
X153924000Y-57658000D02*
X154178000Y-57658000D01*
X147828000Y-63754000D02*
X153924000Y-57658000D01*
X154178000Y-57658000D02*
X155956000Y-59436000D01*
X175768000Y-63754000D02*
X179070000Y-63754000D01*
X171450000Y-59436000D02*
X175768000Y-63754000D01*
X182118000Y-66802000D02*
X179070000Y-63754000D01*
X182118000Y-68326000D02*
X182118000Y-66802000D01*
X191262000Y-92202000D02*
X188976000Y-94488000D01*
X191262000Y-83820000D02*
X191262000Y-92202000D01*
X187452000Y-80010000D02*
X191262000Y-83820000D01*
X187452000Y-73660000D02*
X187452000Y-80010000D01*
X182118000Y-68326000D02*
X187452000Y-73660000D01*
X186944000Y-94488000D02*
X185166000Y-96266000D01*
X188976000Y-94488000D02*
X186944000Y-94488000D01*
X154686000Y-62992000D02*
X158242000Y-59436000D01*
X154686000Y-64048000D02*
X154686000Y-62992000D01*
X158242000Y-59436000D02*
X171450000Y-59436000D01*
X155956000Y-59436000D02*
X158242000Y-59436000D01*
X182372000Y-99060000D02*
X185166000Y-96266000D01*
X182372000Y-109220000D02*
X182372000Y-99060000D01*
X179324000Y-112268000D02*
X182372000Y-109220000D01*
X173736000Y-112268000D02*
X179324000Y-112268000D01*
X171196000Y-114808000D02*
X173736000Y-112268000D01*
%TO.N,+3V3*%
X165287630Y-63540000D02*
X166750000Y-63540000D01*
X164210000Y-63540000D02*
X165287630Y-63540000D01*
X183856000Y-82590000D02*
X185800000Y-82590000D01*
X183260000Y-82590000D02*
X183856000Y-82590000D01*
X176290000Y-108600000D02*
X178830000Y-108600000D01*
X150280000Y-115570000D02*
X152820000Y-115570000D01*
X131240000Y-96530000D02*
X133780000Y-96530000D01*
X138200000Y-70510000D02*
X140740000Y-70510000D01*
X166750000Y-63540000D02*
X170520000Y-67310000D01*
X152820000Y-115570000D02*
X166370000Y-115570000D01*
X173340000Y-108600000D02*
X176290000Y-108600000D01*
X166370000Y-115570000D02*
X173340000Y-108600000D01*
X131240000Y-77470000D02*
X138200000Y-70510000D01*
X131240000Y-96530000D02*
X131240000Y-77470000D01*
X164210000Y-63540000D02*
X161202000Y-66548000D01*
X161202000Y-66548000D02*
X154686000Y-66548000D01*
X140740000Y-70510000D02*
X143104000Y-70510000D01*
X143104000Y-70510000D02*
X146050000Y-67564000D01*
X153670000Y-67564000D02*
X154686000Y-66548000D01*
X146050000Y-67564000D02*
X153670000Y-67564000D01*
X185800000Y-82590000D02*
X185800000Y-91060000D01*
X178830000Y-98030000D02*
X178830000Y-108600000D01*
X185800000Y-91060000D02*
X178830000Y-98030000D01*
X147232000Y-112522000D02*
X150280000Y-115570000D01*
X143256000Y-112522000D02*
X147232000Y-112522000D01*
X137414000Y-106680000D02*
X143256000Y-112522000D01*
X137414000Y-100164000D02*
X137414000Y-106680000D01*
X133780000Y-96530000D02*
X137414000Y-100164000D01*
X183260000Y-82590000D02*
X183260000Y-79628000D01*
X183260000Y-79628000D02*
X180340000Y-76708000D01*
X180340000Y-76708000D02*
X180340000Y-68326000D01*
X180340000Y-68326000D02*
X179324000Y-67310000D01*
X179324000Y-67310000D02*
X176276000Y-67310000D01*
X170520000Y-67310000D02*
X176276000Y-67310000D01*
%TD*%
M02*
