%TF.GenerationSoftware,KiCad,Pcbnew,(5.1.10)-1*%
%TF.CreationDate,2021-12-11T16:43:53+01:00*%
%TF.ProjectId,qura_pump_pcb,71757261-5f70-4756-9d70-5f7063622e6b,rev?*%
%TF.SameCoordinates,Original*%
%TF.FileFunction,Legend,Bot*%
%TF.FilePolarity,Positive*%
%FSLAX46Y46*%
G04 Gerber Fmt 4.6, Leading zero omitted, Abs format (unit mm)*
G04 Created by KiCad (PCBNEW (5.1.10)-1) date 2021-12-11 16:43:53*
%MOMM*%
%LPD*%
G01*
G04 APERTURE LIST*
%ADD10C,0.150000*%
G04 APERTURE END LIST*
D10*
X174631714Y-117483380D02*
X174631714Y-116483380D01*
X174393619Y-116483380D01*
X174250761Y-116531000D01*
X174155523Y-116626238D01*
X174107904Y-116721476D01*
X174060285Y-116911952D01*
X174060285Y-117054809D01*
X174107904Y-117245285D01*
X174155523Y-117340523D01*
X174250761Y-117435761D01*
X174393619Y-117483380D01*
X174631714Y-117483380D01*
X173250761Y-117435761D02*
X173346000Y-117483380D01*
X173536476Y-117483380D01*
X173631714Y-117435761D01*
X173679333Y-117340523D01*
X173679333Y-116959571D01*
X173631714Y-116864333D01*
X173536476Y-116816714D01*
X173346000Y-116816714D01*
X173250761Y-116864333D01*
X173203142Y-116959571D01*
X173203142Y-117054809D01*
X173679333Y-117150047D01*
X172822190Y-117435761D02*
X172726952Y-117483380D01*
X172536476Y-117483380D01*
X172441238Y-117435761D01*
X172393619Y-117340523D01*
X172393619Y-117292904D01*
X172441238Y-117197666D01*
X172536476Y-117150047D01*
X172679333Y-117150047D01*
X172774571Y-117102428D01*
X172822190Y-117007190D01*
X172822190Y-116959571D01*
X172774571Y-116864333D01*
X172679333Y-116816714D01*
X172536476Y-116816714D01*
X172441238Y-116864333D01*
X171965047Y-117483380D02*
X171965047Y-116816714D01*
X171965047Y-116483380D02*
X172012666Y-116531000D01*
X171965047Y-116578619D01*
X171917428Y-116531000D01*
X171965047Y-116483380D01*
X171965047Y-116578619D01*
X171060285Y-116816714D02*
X171060285Y-117626238D01*
X171107904Y-117721476D01*
X171155523Y-117769095D01*
X171250761Y-117816714D01*
X171393619Y-117816714D01*
X171488857Y-117769095D01*
X171060285Y-117435761D02*
X171155523Y-117483380D01*
X171346000Y-117483380D01*
X171441238Y-117435761D01*
X171488857Y-117388142D01*
X171536476Y-117292904D01*
X171536476Y-117007190D01*
X171488857Y-116911952D01*
X171441238Y-116864333D01*
X171346000Y-116816714D01*
X171155523Y-116816714D01*
X171060285Y-116864333D01*
X170584095Y-116816714D02*
X170584095Y-117483380D01*
X170584095Y-116911952D02*
X170536476Y-116864333D01*
X170441238Y-116816714D01*
X170298380Y-116816714D01*
X170203142Y-116864333D01*
X170155523Y-116959571D01*
X170155523Y-117483380D01*
X169298380Y-117435761D02*
X169393619Y-117483380D01*
X169584095Y-117483380D01*
X169679333Y-117435761D01*
X169726952Y-117340523D01*
X169726952Y-116959571D01*
X169679333Y-116864333D01*
X169584095Y-116816714D01*
X169393619Y-116816714D01*
X169298380Y-116864333D01*
X169250761Y-116959571D01*
X169250761Y-117054809D01*
X169726952Y-117150047D01*
X168393619Y-117483380D02*
X168393619Y-116483380D01*
X168393619Y-117435761D02*
X168488857Y-117483380D01*
X168679333Y-117483380D01*
X168774571Y-117435761D01*
X168822190Y-117388142D01*
X168869809Y-117292904D01*
X168869809Y-117007190D01*
X168822190Y-116911952D01*
X168774571Y-116864333D01*
X168679333Y-116816714D01*
X168488857Y-116816714D01*
X168393619Y-116864333D01*
X167155523Y-117483380D02*
X167155523Y-116483380D01*
X167155523Y-116864333D02*
X167060285Y-116816714D01*
X166869809Y-116816714D01*
X166774571Y-116864333D01*
X166726952Y-116911952D01*
X166679333Y-117007190D01*
X166679333Y-117292904D01*
X166726952Y-117388142D01*
X166774571Y-117435761D01*
X166869809Y-117483380D01*
X167060285Y-117483380D01*
X167155523Y-117435761D01*
X166346000Y-116816714D02*
X166107904Y-117483380D01*
X165869809Y-116816714D02*
X166107904Y-117483380D01*
X166203142Y-117721476D01*
X166250761Y-117769095D01*
X166346000Y-117816714D01*
X164774571Y-117197666D02*
X164298380Y-117197666D01*
X164869809Y-117483380D02*
X164536476Y-116483380D01*
X164203142Y-117483380D01*
X163726952Y-117483380D02*
X163822190Y-117435761D01*
X163869809Y-117340523D01*
X163869809Y-116483380D01*
X163346000Y-117483380D02*
X163346000Y-116483380D01*
X163346000Y-116864333D02*
X163250761Y-116816714D01*
X163060285Y-116816714D01*
X162965047Y-116864333D01*
X162917428Y-116911952D01*
X162869809Y-117007190D01*
X162869809Y-117292904D01*
X162917428Y-117388142D01*
X162965047Y-117435761D01*
X163060285Y-117483380D01*
X163250761Y-117483380D01*
X163346000Y-117435761D01*
X162060285Y-117435761D02*
X162155523Y-117483380D01*
X162346000Y-117483380D01*
X162441238Y-117435761D01*
X162488857Y-117340523D01*
X162488857Y-116959571D01*
X162441238Y-116864333D01*
X162346000Y-116816714D01*
X162155523Y-116816714D01*
X162060285Y-116864333D01*
X162012666Y-116959571D01*
X162012666Y-117054809D01*
X162488857Y-117150047D01*
X161584095Y-117483380D02*
X161584095Y-116816714D01*
X161584095Y-117007190D02*
X161536476Y-116911952D01*
X161488857Y-116864333D01*
X161393619Y-116816714D01*
X161298380Y-116816714D01*
X161107904Y-116816714D02*
X160726952Y-116816714D01*
X160965047Y-116483380D02*
X160965047Y-117340523D01*
X160917428Y-117435761D01*
X160822190Y-117483380D01*
X160726952Y-117483380D01*
X160250761Y-117483380D02*
X160346000Y-117435761D01*
X160393619Y-117388142D01*
X160441238Y-117292904D01*
X160441238Y-117007190D01*
X160393619Y-116911952D01*
X160346000Y-116864333D01*
X160250761Y-116816714D01*
X160107904Y-116816714D01*
X160012666Y-116864333D01*
X159965047Y-116911952D01*
X159917428Y-117007190D01*
X159917428Y-117292904D01*
X159965047Y-117388142D01*
X160012666Y-117435761D01*
X160107904Y-117483380D01*
X160250761Y-117483380D01*
X158155523Y-117483380D02*
X158488857Y-117007190D01*
X158726952Y-117483380D02*
X158726952Y-116483380D01*
X158346000Y-116483380D01*
X158250761Y-116531000D01*
X158203142Y-116578619D01*
X158155523Y-116673857D01*
X158155523Y-116816714D01*
X158203142Y-116911952D01*
X158250761Y-116959571D01*
X158346000Y-117007190D01*
X158726952Y-117007190D01*
X157584095Y-117483380D02*
X157679333Y-117435761D01*
X157726952Y-117388142D01*
X157774571Y-117292904D01*
X157774571Y-117007190D01*
X157726952Y-116911952D01*
X157679333Y-116864333D01*
X157584095Y-116816714D01*
X157441238Y-116816714D01*
X157346000Y-116864333D01*
X157298380Y-116911952D01*
X157250761Y-117007190D01*
X157250761Y-117292904D01*
X157298380Y-117388142D01*
X157346000Y-117435761D01*
X157441238Y-117483380D01*
X157584095Y-117483380D01*
X156965047Y-116816714D02*
X156584095Y-116816714D01*
X156822190Y-116483380D02*
X156822190Y-117340523D01*
X156774571Y-117435761D01*
X156679333Y-117483380D01*
X156584095Y-117483380D01*
X155822190Y-117483380D02*
X155822190Y-116959571D01*
X155869809Y-116864333D01*
X155965047Y-116816714D01*
X156155523Y-116816714D01*
X156250761Y-116864333D01*
X155822190Y-117435761D02*
X155917428Y-117483380D01*
X156155523Y-117483380D01*
X156250761Y-117435761D01*
X156298380Y-117340523D01*
X156298380Y-117245285D01*
X156250761Y-117150047D01*
X156155523Y-117102428D01*
X155917428Y-117102428D01*
X155822190Y-117054809D01*
X169750761Y-118466714D02*
X169369809Y-118466714D01*
X169607904Y-119133380D02*
X169607904Y-118276238D01*
X169560285Y-118181000D01*
X169465047Y-118133380D01*
X169369809Y-118133380D01*
X168893619Y-119133380D02*
X168988857Y-119085761D01*
X169036476Y-119038142D01*
X169084095Y-118942904D01*
X169084095Y-118657190D01*
X169036476Y-118561952D01*
X168988857Y-118514333D01*
X168893619Y-118466714D01*
X168750761Y-118466714D01*
X168655523Y-118514333D01*
X168607904Y-118561952D01*
X168560285Y-118657190D01*
X168560285Y-118942904D01*
X168607904Y-119038142D01*
X168655523Y-119085761D01*
X168750761Y-119133380D01*
X168893619Y-119133380D01*
X168131714Y-119133380D02*
X168131714Y-118466714D01*
X168131714Y-118657190D02*
X168084095Y-118561952D01*
X168036476Y-118514333D01*
X167941238Y-118466714D01*
X167846000Y-118466714D01*
X166084095Y-119228619D02*
X166179333Y-119181000D01*
X166274571Y-119085761D01*
X166417428Y-118942904D01*
X166512666Y-118895285D01*
X166607904Y-118895285D01*
X166560285Y-119133380D02*
X166655523Y-119085761D01*
X166750761Y-118990523D01*
X166798380Y-118800047D01*
X166798380Y-118466714D01*
X166750761Y-118276238D01*
X166655523Y-118181000D01*
X166560285Y-118133380D01*
X166369809Y-118133380D01*
X166274571Y-118181000D01*
X166179333Y-118276238D01*
X166131714Y-118466714D01*
X166131714Y-118800047D01*
X166179333Y-118990523D01*
X166274571Y-119085761D01*
X166369809Y-119133380D01*
X166560285Y-119133380D01*
X165274571Y-118466714D02*
X165274571Y-119133380D01*
X165703142Y-118466714D02*
X165703142Y-118990523D01*
X165655523Y-119085761D01*
X165560285Y-119133380D01*
X165417428Y-119133380D01*
X165322190Y-119085761D01*
X165274571Y-119038142D01*
X164798380Y-119133380D02*
X164798380Y-118466714D01*
X164798380Y-118657190D02*
X164750761Y-118561952D01*
X164703142Y-118514333D01*
X164607904Y-118466714D01*
X164512666Y-118466714D01*
X163750761Y-119133380D02*
X163750761Y-118609571D01*
X163798380Y-118514333D01*
X163893619Y-118466714D01*
X164084095Y-118466714D01*
X164179333Y-118514333D01*
X163750761Y-119085761D02*
X163846000Y-119133380D01*
X164084095Y-119133380D01*
X164179333Y-119085761D01*
X164226952Y-118990523D01*
X164226952Y-118895285D01*
X164179333Y-118800047D01*
X164084095Y-118752428D01*
X163846000Y-118752428D01*
X163750761Y-118704809D01*
X162560285Y-119085761D02*
X162465047Y-119133380D01*
X162274571Y-119133380D01*
X162179333Y-119085761D01*
X162131714Y-118990523D01*
X162131714Y-118942904D01*
X162179333Y-118847666D01*
X162274571Y-118800047D01*
X162417428Y-118800047D01*
X162512666Y-118752428D01*
X162560285Y-118657190D01*
X162560285Y-118609571D01*
X162512666Y-118514333D01*
X162417428Y-118466714D01*
X162274571Y-118466714D01*
X162179333Y-118514333D01*
X161703142Y-119038142D02*
X161655523Y-119085761D01*
X161703142Y-119133380D01*
X161750761Y-119085761D01*
X161703142Y-119038142D01*
X161703142Y-119133380D01*
X161226952Y-119133380D02*
X161226952Y-118466714D01*
X161226952Y-118657190D02*
X161179333Y-118561952D01*
X161131714Y-118514333D01*
X161036476Y-118466714D01*
X160941238Y-118466714D01*
X160607904Y-119038142D02*
X160560285Y-119085761D01*
X160607904Y-119133380D01*
X160655523Y-119085761D01*
X160607904Y-119038142D01*
X160607904Y-119133380D01*
X159988857Y-119133380D02*
X160084095Y-119085761D01*
X160131714Y-118990523D01*
X160131714Y-118133380D01*
M02*
