%TF.GenerationSoftware,KiCad,Pcbnew,(5.1.10)-1*%
%TF.CreationDate,2021-12-11T16:43:53+01:00*%
%TF.ProjectId,qura_pump_pcb,71757261-5f70-4756-9d70-5f7063622e6b,rev?*%
%TF.SameCoordinates,Original*%
%TF.FileFunction,Profile,NP*%
%FSLAX46Y46*%
G04 Gerber Fmt 4.6, Leading zero omitted, Abs format (unit mm)*
G04 Created by KiCad (PCBNEW (5.1.10)-1) date 2021-12-11 16:43:53*
%MOMM*%
%LPD*%
G01*
G04 APERTURE LIST*
%TA.AperFunction,Profile*%
%ADD10C,0.200000*%
%TD*%
G04 APERTURE END LIST*
D10*
X193466685Y-89634888D02*
G75*
G03*
X193466685Y-89634888I-35000000J0D01*
G01*
X168888239Y-68984227D02*
X171139905Y-70284227D01*
X169070256Y-73868966D02*
G75*
G02*
X177422159Y-88334889I-10603571J-15765922D01*
G01*
X171139905Y-70284227D02*
X169070255Y-73868966D01*
X145793465Y-108985549D02*
X147863115Y-105400810D01*
X150114781Y-106700810D02*
X148045131Y-110285549D01*
X169070255Y-105400810D02*
X171139905Y-108985549D01*
X181561459Y-88334889D02*
X181561459Y-90934888D01*
X166818589Y-72568966D02*
X168888239Y-68984227D01*
X135371911Y-88334888D02*
X139511211Y-88334888D01*
X181561459Y-90934888D02*
X177422159Y-90934888D01*
X166818589Y-106700810D02*
G75*
G02*
X150114781Y-106700810I-8351904J17065922D01*
G01*
X177422159Y-90934888D02*
G75*
G02*
X169070255Y-105400810I-18955474J1300000D01*
G01*
X145793465Y-70284227D02*
X148045131Y-68984227D01*
X168888239Y-110285549D02*
X166818589Y-106700810D01*
X171139905Y-108985549D02*
X168888239Y-110285549D01*
X150114781Y-72568966D02*
G75*
G02*
X166818589Y-72568966I8351904J-17065922D01*
G01*
X135371911Y-90934888D02*
X135371911Y-88334888D01*
X148045131Y-68984227D02*
X150114781Y-72568966D01*
X147863115Y-73868966D02*
X145793465Y-70284227D01*
X139511211Y-88334888D02*
G75*
G02*
X147863115Y-73868966I18955474J-1300000D01*
G01*
X147863115Y-105400810D02*
G75*
G02*
X139511211Y-90934888I10603570J15765922D01*
G01*
X148045131Y-110285549D02*
X145793465Y-108985549D01*
X139511211Y-90934888D02*
X135371911Y-90934888D01*
X177422159Y-88334889D02*
X181561459Y-88334889D01*
M02*
