M48
; DRILL file {KiCad (5.1.10)-1} date 12/13/21 08:10:39
; FORMAT={-:-/ absolute / inch / decimal}
; #@! TF.CreationDate,2021-12-13T08:10:39+01:00
; #@! TF.GenerationSoftware,Kicad,Pcbnew,(5.1.10)-1
; #@! TF.FileFunction,Plated,1,2,PTH
FMAT,2
INCH
T1C0.0276
T2C0.0300
T3C0.0394
T4C0.1181
%
G90
G05
T1
X5.01Y-3.31
X5.01Y-3.61
X5.09Y-2.94
X5.29Y-4.01
X5.29Y-4.31
X5.39Y-2.94
X5.44Y-4.52
X5.52Y-2.51
X5.74Y-4.52
X5.82Y-2.51
X6.07Y-2.27
X6.09Y-4.75
X6.37Y-2.27
X6.39Y-4.75
X6.74Y-4.52
X6.75Y-2.51
X7.04Y-4.52
X7.05Y-2.51
X7.17Y-2.69
X7.17Y-2.99
X7.29Y-3.79
X7.29Y-4.09
X7.44Y-3.42
X7.44Y-3.72
T2
X5.1669Y-3.8004
X5.2169Y-3.7504
X5.2169Y-3.8504
X5.2669Y-3.8004
X5.4409Y-2.776
X5.4909Y-2.726
X5.4909Y-2.826
X5.5409Y-2.776
X5.9165Y-4.55
X5.9665Y-4.5
X5.9665Y-4.6
X6.0165Y-4.55
X6.465Y-2.5016
X6.515Y-2.4516
X6.515Y-2.5516
X6.565Y-2.5016
X6.9406Y-4.2756
X6.9906Y-4.2256
X6.9906Y-4.3256
X7.0406Y-4.2756
X7.215Y-3.2516
X7.265Y-3.2016
X7.265Y-3.3016
X7.315Y-3.2516
T3
X5.26Y-3.23
X5.3584Y-3.23
X6.09Y-2.5216
X6.09Y-2.62
X6.33Y-4.46
X6.4284Y-4.46
X6.91Y-2.76
X6.91Y-2.8584
T4
X5.59Y-4.07
X6.98Y-3.14
T0
M30
