%TF.GenerationSoftware,KiCad,Pcbnew,(5.1.10)-1*%
%TF.CreationDate,2021-12-11T16:43:53+01:00*%
%TF.ProjectId,qura_pump_pcb,71757261-5f70-4756-9d70-5f7063622e6b,rev?*%
%TF.SameCoordinates,Original*%
%TF.FileFunction,Legend,Top*%
%TF.FilePolarity,Positive*%
%FSLAX46Y46*%
G04 Gerber Fmt 4.6, Leading zero omitted, Abs format (unit mm)*
G04 Created by KiCad (PCBNEW (5.1.10)-1) date 2021-12-11 16:43:53*
%MOMM*%
%LPD*%
G01*
G04 APERTURE LIST*
%ADD10C,0.150000*%
%ADD11C,0.120000*%
%ADD12C,0.200000*%
G04 APERTURE END LIST*
D10*
X157996000Y-62737904D02*
X157948380Y-62833142D01*
X157948380Y-62976000D01*
X157996000Y-63118857D01*
X158091238Y-63214095D01*
X158186476Y-63261714D01*
X158376952Y-63309333D01*
X158519809Y-63309333D01*
X158710285Y-63261714D01*
X158805523Y-63214095D01*
X158900761Y-63118857D01*
X158948380Y-62976000D01*
X158948380Y-62880761D01*
X158900761Y-62737904D01*
X158853142Y-62690285D01*
X158519809Y-62690285D01*
X158519809Y-62880761D01*
X158948380Y-62261714D02*
X157948380Y-62261714D01*
X158948380Y-61690285D01*
X157948380Y-61690285D01*
X158948380Y-61214095D02*
X157948380Y-61214095D01*
X157948380Y-60976000D01*
X157996000Y-60833142D01*
X158091238Y-60737904D01*
X158186476Y-60690285D01*
X158376952Y-60642666D01*
X158519809Y-60642666D01*
X158710285Y-60690285D01*
X158805523Y-60737904D01*
X158900761Y-60833142D01*
X158948380Y-60976000D01*
X158948380Y-61214095D01*
X157948380Y-69818095D02*
X157948380Y-69199047D01*
X158329333Y-69532380D01*
X158329333Y-69389523D01*
X158376952Y-69294285D01*
X158424571Y-69246666D01*
X158519809Y-69199047D01*
X158757904Y-69199047D01*
X158853142Y-69246666D01*
X158900761Y-69294285D01*
X158948380Y-69389523D01*
X158948380Y-69675238D01*
X158900761Y-69770476D01*
X158853142Y-69818095D01*
X157948380Y-68913333D02*
X158948380Y-68580000D01*
X157948380Y-68246666D01*
X157948380Y-68008571D02*
X157948380Y-67389523D01*
X158329333Y-67722857D01*
X158329333Y-67580000D01*
X158376952Y-67484761D01*
X158424571Y-67437142D01*
X158519809Y-67389523D01*
X158757904Y-67389523D01*
X158853142Y-67437142D01*
X158900761Y-67484761D01*
X158948380Y-67580000D01*
X158948380Y-67865714D01*
X158900761Y-67960952D01*
X158853142Y-68008571D01*
X159448476Y-116117714D02*
X159448476Y-116784380D01*
X159210380Y-115736761D02*
X158972285Y-116451047D01*
X159591333Y-116451047D01*
X164258666Y-115784380D02*
X164877714Y-115784380D01*
X164544380Y-116165333D01*
X164687238Y-116165333D01*
X164782476Y-116212952D01*
X164830095Y-116260571D01*
X164877714Y-116355809D01*
X164877714Y-116593904D01*
X164830095Y-116689142D01*
X164782476Y-116736761D01*
X164687238Y-116784380D01*
X164401523Y-116784380D01*
X164306285Y-116736761D01*
X164258666Y-116689142D01*
X178109619Y-74453714D02*
X178062000Y-74406095D01*
X178014380Y-74310857D01*
X178014380Y-74072761D01*
X178062000Y-73977523D01*
X178109619Y-73929904D01*
X178204857Y-73882285D01*
X178300095Y-73882285D01*
X178442952Y-73929904D01*
X179014380Y-74501333D01*
X179014380Y-73882285D01*
X179014380Y-68802285D02*
X179014380Y-69373714D01*
X179014380Y-69088000D02*
X178014380Y-69088000D01*
X178157238Y-69183238D01*
X178252476Y-69278476D01*
X178300095Y-69373714D01*
X137096476Y-85304380D02*
X136906000Y-85304380D01*
X136810761Y-85352000D01*
X136763142Y-85399619D01*
X136667904Y-85542476D01*
X136620285Y-85732952D01*
X136620285Y-86113904D01*
X136667904Y-86209142D01*
X136715523Y-86256761D01*
X136810761Y-86304380D01*
X137001238Y-86304380D01*
X137096476Y-86256761D01*
X137144095Y-86209142D01*
X137191714Y-86113904D01*
X137191714Y-85875809D01*
X137144095Y-85780571D01*
X137096476Y-85732952D01*
X137001238Y-85685333D01*
X136810761Y-85685333D01*
X136715523Y-85732952D01*
X136667904Y-85780571D01*
X136620285Y-85875809D01*
X132826095Y-85304380D02*
X132349904Y-85304380D01*
X132302285Y-85780571D01*
X132349904Y-85732952D01*
X132445142Y-85685333D01*
X132683238Y-85685333D01*
X132778476Y-85732952D01*
X132826095Y-85780571D01*
X132873714Y-85875809D01*
X132873714Y-86113904D01*
X132826095Y-86209142D01*
X132778476Y-86256761D01*
X132683238Y-86304380D01*
X132445142Y-86304380D01*
X132349904Y-86256761D01*
X132302285Y-86209142D01*
D11*
%TO.C,CPWR*%
X152976000Y-69158000D02*
X156996000Y-69158000D01*
X156996000Y-69158000D02*
X156996000Y-61438000D01*
X156996000Y-61438000D02*
X152976000Y-61438000D01*
X152976000Y-61438000D02*
X152976000Y-69158000D01*
X154686000Y-69158000D02*
X154686000Y-68658000D01*
X154686000Y-68658000D02*
X153476000Y-68658000D01*
X153476000Y-68658000D02*
X153476000Y-61938000D01*
X153476000Y-61938000D02*
X154686000Y-61938000D01*
X154686000Y-61938000D02*
X154686000Y-61438000D01*
X155496000Y-69158000D02*
X155496000Y-68158000D01*
X155496000Y-68158000D02*
X156996000Y-68158000D01*
X155496000Y-61438000D02*
X155496000Y-62438000D01*
X155496000Y-62438000D02*
X156996000Y-62438000D01*
X154796000Y-69458000D02*
X157296000Y-69458000D01*
X157296000Y-69458000D02*
X157296000Y-66958000D01*
%TO.C,C34*%
X165892000Y-114994000D02*
X165892000Y-110974000D01*
X165892000Y-110974000D02*
X158172000Y-110974000D01*
X158172000Y-110974000D02*
X158172000Y-114994000D01*
X158172000Y-114994000D02*
X165892000Y-114994000D01*
X165892000Y-113284000D02*
X165392000Y-113284000D01*
X165392000Y-113284000D02*
X165392000Y-114494000D01*
X165392000Y-114494000D02*
X158672000Y-114494000D01*
X158672000Y-114494000D02*
X158672000Y-113284000D01*
X158672000Y-113284000D02*
X158172000Y-113284000D01*
X165892000Y-112474000D02*
X164892000Y-112474000D01*
X164892000Y-112474000D02*
X164892000Y-110974000D01*
X158172000Y-112474000D02*
X159172000Y-112474000D01*
X159172000Y-112474000D02*
X159172000Y-110974000D01*
X166192000Y-113174000D02*
X166192000Y-110674000D01*
X166192000Y-110674000D02*
X163692000Y-110674000D01*
%TO.C,C56*%
X130994000Y-80332000D02*
X130994000Y-84352000D01*
X130994000Y-84352000D02*
X138714000Y-84352000D01*
X138714000Y-84352000D02*
X138714000Y-80332000D01*
X138714000Y-80332000D02*
X130994000Y-80332000D01*
X130994000Y-82042000D02*
X131494000Y-82042000D01*
X131494000Y-82042000D02*
X131494000Y-80832000D01*
X131494000Y-80832000D02*
X138214000Y-80832000D01*
X138214000Y-80832000D02*
X138214000Y-82042000D01*
X138214000Y-82042000D02*
X138714000Y-82042000D01*
X130994000Y-82852000D02*
X131994000Y-82852000D01*
X131994000Y-82852000D02*
X131994000Y-84352000D01*
X138714000Y-82852000D02*
X137714000Y-82852000D01*
X137714000Y-82852000D02*
X137714000Y-84352000D01*
X130694000Y-82152000D02*
X130694000Y-84652000D01*
X130694000Y-84652000D02*
X133194000Y-84652000D01*
%TO.C,Rs2*%
X189896000Y-88758000D02*
X188056000Y-88758000D01*
X188056000Y-88758000D02*
X188056000Y-92598000D01*
X188056000Y-92598000D02*
X189896000Y-92598000D01*
X189896000Y-92598000D02*
X189896000Y-88758000D01*
X188976000Y-87808000D02*
X188976000Y-88758000D01*
X188976000Y-93548000D02*
X188976000Y-92598000D01*
%TO.C,Rs6*%
X135016000Y-75596000D02*
X135016000Y-73756000D01*
X135016000Y-73756000D02*
X131176000Y-73756000D01*
X131176000Y-73756000D02*
X131176000Y-75596000D01*
X131176000Y-75596000D02*
X135016000Y-75596000D01*
X135966000Y-74676000D02*
X135016000Y-74676000D01*
X130226000Y-74676000D02*
X131176000Y-74676000D01*
%TO.C,Rs5*%
X135286000Y-103744000D02*
X133446000Y-103744000D01*
X133446000Y-103744000D02*
X133446000Y-107584000D01*
X133446000Y-107584000D02*
X135286000Y-107584000D01*
X135286000Y-107584000D02*
X135286000Y-103744000D01*
X134366000Y-102794000D02*
X134366000Y-103744000D01*
X134366000Y-108534000D02*
X134366000Y-107584000D01*
%TO.C,Rs4*%
X156576000Y-119730000D02*
X156576000Y-121570000D01*
X156576000Y-121570000D02*
X160416000Y-121570000D01*
X160416000Y-121570000D02*
X160416000Y-119730000D01*
X160416000Y-119730000D02*
X156576000Y-119730000D01*
X155626000Y-120650000D02*
X156576000Y-120650000D01*
X161366000Y-120650000D02*
X160416000Y-120650000D01*
%TO.C,Rs3*%
X176926000Y-115728000D02*
X176926000Y-113888000D01*
X176926000Y-113888000D02*
X173086000Y-113888000D01*
X173086000Y-113888000D02*
X173086000Y-115728000D01*
X173086000Y-115728000D02*
X176926000Y-115728000D01*
X177876000Y-114808000D02*
X176926000Y-114808000D01*
X172136000Y-114808000D02*
X173086000Y-114808000D01*
%TO.C,Rs1*%
X173340000Y-62834000D02*
X173340000Y-64674000D01*
X173340000Y-64674000D02*
X177180000Y-64674000D01*
X177180000Y-64674000D02*
X177180000Y-62834000D01*
X177180000Y-62834000D02*
X173340000Y-62834000D01*
X172390000Y-63754000D02*
X173340000Y-63754000D01*
X178130000Y-63754000D02*
X177180000Y-63754000D01*
%TO.C,R6*%
X145938000Y-64674000D02*
X145938000Y-62834000D01*
X145938000Y-62834000D02*
X142098000Y-62834000D01*
X142098000Y-62834000D02*
X142098000Y-64674000D01*
X142098000Y-64674000D02*
X145938000Y-64674000D01*
X146888000Y-63754000D02*
X145938000Y-63754000D01*
X141148000Y-63754000D02*
X142098000Y-63754000D01*
%TO.C,R5*%
X128174000Y-85964000D02*
X126334000Y-85964000D01*
X126334000Y-85964000D02*
X126334000Y-89804000D01*
X126334000Y-89804000D02*
X128174000Y-89804000D01*
X128174000Y-89804000D02*
X128174000Y-85964000D01*
X127254000Y-85014000D02*
X127254000Y-85964000D01*
X127254000Y-90754000D02*
X127254000Y-89804000D01*
%TO.C,R4*%
X140066000Y-113888000D02*
X140066000Y-115728000D01*
X140066000Y-115728000D02*
X143906000Y-115728000D01*
X143906000Y-115728000D02*
X143906000Y-113888000D01*
X143906000Y-113888000D02*
X140066000Y-113888000D01*
X139116000Y-114808000D02*
X140066000Y-114808000D01*
X144856000Y-114808000D02*
X143906000Y-114808000D01*
%TO.C,R3*%
X186086000Y-98156000D02*
X184246000Y-98156000D01*
X184246000Y-98156000D02*
X184246000Y-101996000D01*
X184246000Y-101996000D02*
X186086000Y-101996000D01*
X186086000Y-101996000D02*
X186086000Y-98156000D01*
X185166000Y-97206000D02*
X185166000Y-98156000D01*
X185166000Y-102946000D02*
X185166000Y-101996000D01*
%TO.C,R2*%
X183038000Y-70216000D02*
X181198000Y-70216000D01*
X181198000Y-70216000D02*
X181198000Y-74056000D01*
X181198000Y-74056000D02*
X183038000Y-74056000D01*
X183038000Y-74056000D02*
X183038000Y-70216000D01*
X182118000Y-69266000D02*
X182118000Y-70216000D01*
X182118000Y-75006000D02*
X182118000Y-74056000D01*
%TO.C,R1*%
X156068000Y-56738000D02*
X156068000Y-58578000D01*
X156068000Y-58578000D02*
X159908000Y-58578000D01*
X159908000Y-58578000D02*
X159908000Y-56738000D01*
X159908000Y-56738000D02*
X156068000Y-56738000D01*
X155118000Y-57658000D02*
X156068000Y-57658000D01*
X160858000Y-57658000D02*
X159908000Y-57658000D01*
D12*
%TO.C,OPB730F6*%
X141099232Y-72699602D02*
G75*
G02*
X141752216Y-71942195I-1683080J2111218D01*
G01*
X141099232Y-72699602D02*
X141899829Y-73379653D01*
X141899829Y-73379653D02*
X142547225Y-72617500D01*
X142547225Y-72617500D02*
X141752216Y-71942195D01*
%TO.C,OPB730F5*%
X134139232Y-98719602D02*
G75*
G02*
X134792216Y-97962195I-1683080J2111218D01*
G01*
X134139232Y-98719602D02*
X134939829Y-99399653D01*
X134939829Y-99399653D02*
X135587225Y-98637500D01*
X135587225Y-98637500D02*
X134792216Y-97962195D01*
%TO.C,OPB730F4*%
X153179232Y-117759602D02*
G75*
G02*
X153832216Y-117002195I-1683080J2111218D01*
G01*
X153179232Y-117759602D02*
X153979829Y-118439653D01*
X153979829Y-118439653D02*
X154627225Y-117677500D01*
X154627225Y-117677500D02*
X153832216Y-117002195D01*
%TO.C,OPB730F3*%
X179189232Y-110789602D02*
G75*
G02*
X179842216Y-110032195I-1683080J2111218D01*
G01*
X179189232Y-110789602D02*
X179989829Y-111469653D01*
X179989829Y-111469653D02*
X180637225Y-110707500D01*
X180637225Y-110707500D02*
X179842216Y-110032195D01*
%TO.C,OPB730F2*%
X186159232Y-84779602D02*
G75*
G02*
X186812216Y-84022195I-1683080J2111218D01*
G01*
X186159232Y-84779602D02*
X186959829Y-85459653D01*
X186959829Y-85459653D02*
X187607225Y-84697500D01*
X187607225Y-84697500D02*
X186812216Y-84022195D01*
%TO.C,OPB730F1*%
X167109232Y-65729602D02*
G75*
G02*
X167762216Y-64972195I-1683080J2111218D01*
G01*
X167109232Y-65729602D02*
X167909829Y-66409653D01*
X167909829Y-66409653D02*
X168557225Y-65647500D01*
X168557225Y-65647500D02*
X167762216Y-64972195D01*
D11*
%TO.C,C12*%
X177224000Y-67494000D02*
X173204000Y-67494000D01*
X173204000Y-67494000D02*
X173204000Y-75214000D01*
X173204000Y-75214000D02*
X177224000Y-75214000D01*
X177224000Y-75214000D02*
X177224000Y-67494000D01*
X175514000Y-67494000D02*
X175514000Y-67994000D01*
X175514000Y-67994000D02*
X176724000Y-67994000D01*
X176724000Y-67994000D02*
X176724000Y-74714000D01*
X176724000Y-74714000D02*
X175514000Y-74714000D01*
X175514000Y-74714000D02*
X175514000Y-75214000D01*
X174704000Y-67494000D02*
X174704000Y-68494000D01*
X174704000Y-68494000D02*
X173204000Y-68494000D01*
X174704000Y-75214000D02*
X174704000Y-74214000D01*
X174704000Y-74214000D02*
X173204000Y-74214000D01*
X175404000Y-67194000D02*
X172904000Y-67194000D01*
X172904000Y-67194000D02*
X172904000Y-69694000D01*
%TO.C,REF\u002A\u002A*%
D10*
X175958666Y-76208380D02*
X175625333Y-75732190D01*
X175387238Y-76208380D02*
X175387238Y-75208380D01*
X175768190Y-75208380D01*
X175863428Y-75256000D01*
X175911047Y-75303619D01*
X175958666Y-75398857D01*
X175958666Y-75541714D01*
X175911047Y-75636952D01*
X175863428Y-75684571D01*
X175768190Y-75732190D01*
X175387238Y-75732190D01*
X176387238Y-75684571D02*
X176720571Y-75684571D01*
X176863428Y-76208380D02*
X176387238Y-76208380D01*
X176387238Y-75208380D01*
X176863428Y-75208380D01*
X177625333Y-75684571D02*
X177292000Y-75684571D01*
X177292000Y-76208380D02*
X177292000Y-75208380D01*
X177768190Y-75208380D01*
X178292000Y-75208380D02*
X178292000Y-75446476D01*
X178053904Y-75351238D02*
X178292000Y-75446476D01*
X178530095Y-75351238D01*
X178149142Y-75636952D02*
X178292000Y-75446476D01*
X178434857Y-75636952D01*
X179053904Y-75208380D02*
X179053904Y-75446476D01*
X178815809Y-75351238D02*
X179053904Y-75446476D01*
X179292000Y-75351238D01*
X178911047Y-75636952D02*
X179053904Y-75446476D01*
X179196761Y-75636952D01*
%TO.C,CPWR*%
X152243142Y-66559904D02*
X152290761Y-66607523D01*
X152338380Y-66750380D01*
X152338380Y-66845619D01*
X152290761Y-66988476D01*
X152195523Y-67083714D01*
X152100285Y-67131333D01*
X151909809Y-67178952D01*
X151766952Y-67178952D01*
X151576476Y-67131333D01*
X151481238Y-67083714D01*
X151386000Y-66988476D01*
X151338380Y-66845619D01*
X151338380Y-66750380D01*
X151386000Y-66607523D01*
X151433619Y-66559904D01*
X152338380Y-66131333D02*
X151338380Y-66131333D01*
X151338380Y-65750380D01*
X151386000Y-65655142D01*
X151433619Y-65607523D01*
X151528857Y-65559904D01*
X151671714Y-65559904D01*
X151766952Y-65607523D01*
X151814571Y-65655142D01*
X151862190Y-65750380D01*
X151862190Y-66131333D01*
X151338380Y-65226571D02*
X152338380Y-64988476D01*
X151624095Y-64798000D01*
X152338380Y-64607523D01*
X151338380Y-64369428D01*
X152338380Y-63417047D02*
X151862190Y-63750380D01*
X152338380Y-63988476D02*
X151338380Y-63988476D01*
X151338380Y-63607523D01*
X151386000Y-63512285D01*
X151433619Y-63464666D01*
X151528857Y-63417047D01*
X151671714Y-63417047D01*
X151766952Y-63464666D01*
X151814571Y-63512285D01*
X151862190Y-63607523D01*
X151862190Y-63988476D01*
%TO.C,C34*%
X161389142Y-110085142D02*
X161341523Y-110132761D01*
X161198666Y-110180380D01*
X161103428Y-110180380D01*
X160960571Y-110132761D01*
X160865333Y-110037523D01*
X160817714Y-109942285D01*
X160770095Y-109751809D01*
X160770095Y-109608952D01*
X160817714Y-109418476D01*
X160865333Y-109323238D01*
X160960571Y-109228000D01*
X161103428Y-109180380D01*
X161198666Y-109180380D01*
X161341523Y-109228000D01*
X161389142Y-109275619D01*
X161722476Y-109180380D02*
X162341523Y-109180380D01*
X162008190Y-109561333D01*
X162151047Y-109561333D01*
X162246285Y-109608952D01*
X162293904Y-109656571D01*
X162341523Y-109751809D01*
X162341523Y-109989904D01*
X162293904Y-110085142D01*
X162246285Y-110132761D01*
X162151047Y-110180380D01*
X161865333Y-110180380D01*
X161770095Y-110132761D01*
X161722476Y-110085142D01*
X163198666Y-109513714D02*
X163198666Y-110180380D01*
X162960571Y-109132761D02*
X162722476Y-109847047D01*
X163341523Y-109847047D01*
%TO.C,C56*%
X134211142Y-79599142D02*
X134163523Y-79646761D01*
X134020666Y-79694380D01*
X133925428Y-79694380D01*
X133782571Y-79646761D01*
X133687333Y-79551523D01*
X133639714Y-79456285D01*
X133592095Y-79265809D01*
X133592095Y-79122952D01*
X133639714Y-78932476D01*
X133687333Y-78837238D01*
X133782571Y-78742000D01*
X133925428Y-78694380D01*
X134020666Y-78694380D01*
X134163523Y-78742000D01*
X134211142Y-78789619D01*
X135115904Y-78694380D02*
X134639714Y-78694380D01*
X134592095Y-79170571D01*
X134639714Y-79122952D01*
X134734952Y-79075333D01*
X134973047Y-79075333D01*
X135068285Y-79122952D01*
X135115904Y-79170571D01*
X135163523Y-79265809D01*
X135163523Y-79503904D01*
X135115904Y-79599142D01*
X135068285Y-79646761D01*
X134973047Y-79694380D01*
X134734952Y-79694380D01*
X134639714Y-79646761D01*
X134592095Y-79599142D01*
X136020666Y-78694380D02*
X135830190Y-78694380D01*
X135734952Y-78742000D01*
X135687333Y-78789619D01*
X135592095Y-78932476D01*
X135544476Y-79122952D01*
X135544476Y-79503904D01*
X135592095Y-79599142D01*
X135639714Y-79646761D01*
X135734952Y-79694380D01*
X135925428Y-79694380D01*
X136020666Y-79646761D01*
X136068285Y-79599142D01*
X136115904Y-79503904D01*
X136115904Y-79265809D01*
X136068285Y-79170571D01*
X136020666Y-79122952D01*
X135925428Y-79075333D01*
X135734952Y-79075333D01*
X135639714Y-79122952D01*
X135592095Y-79170571D01*
X135544476Y-79265809D01*
%TO.C,Rs2*%
X191348380Y-91249428D02*
X190872190Y-91582761D01*
X191348380Y-91820857D02*
X190348380Y-91820857D01*
X190348380Y-91439904D01*
X190396000Y-91344666D01*
X190443619Y-91297047D01*
X190538857Y-91249428D01*
X190681714Y-91249428D01*
X190776952Y-91297047D01*
X190824571Y-91344666D01*
X190872190Y-91439904D01*
X190872190Y-91820857D01*
X191300761Y-90868476D02*
X191348380Y-90773238D01*
X191348380Y-90582761D01*
X191300761Y-90487523D01*
X191205523Y-90439904D01*
X191157904Y-90439904D01*
X191062666Y-90487523D01*
X191015047Y-90582761D01*
X191015047Y-90725619D01*
X190967428Y-90820857D01*
X190872190Y-90868476D01*
X190824571Y-90868476D01*
X190729333Y-90820857D01*
X190681714Y-90725619D01*
X190681714Y-90582761D01*
X190729333Y-90487523D01*
X190443619Y-90058952D02*
X190396000Y-90011333D01*
X190348380Y-89916095D01*
X190348380Y-89678000D01*
X190396000Y-89582761D01*
X190443619Y-89535142D01*
X190538857Y-89487523D01*
X190634095Y-89487523D01*
X190776952Y-89535142D01*
X191348380Y-90106571D01*
X191348380Y-89487523D01*
%TO.C,Rs6*%
X132524571Y-77048380D02*
X132191238Y-76572190D01*
X131953142Y-77048380D02*
X131953142Y-76048380D01*
X132334095Y-76048380D01*
X132429333Y-76096000D01*
X132476952Y-76143619D01*
X132524571Y-76238857D01*
X132524571Y-76381714D01*
X132476952Y-76476952D01*
X132429333Y-76524571D01*
X132334095Y-76572190D01*
X131953142Y-76572190D01*
X132905523Y-77000761D02*
X133000761Y-77048380D01*
X133191238Y-77048380D01*
X133286476Y-77000761D01*
X133334095Y-76905523D01*
X133334095Y-76857904D01*
X133286476Y-76762666D01*
X133191238Y-76715047D01*
X133048380Y-76715047D01*
X132953142Y-76667428D01*
X132905523Y-76572190D01*
X132905523Y-76524571D01*
X132953142Y-76429333D01*
X133048380Y-76381714D01*
X133191238Y-76381714D01*
X133286476Y-76429333D01*
X134191238Y-76048380D02*
X134000761Y-76048380D01*
X133905523Y-76096000D01*
X133857904Y-76143619D01*
X133762666Y-76286476D01*
X133715047Y-76476952D01*
X133715047Y-76857904D01*
X133762666Y-76953142D01*
X133810285Y-77000761D01*
X133905523Y-77048380D01*
X134096000Y-77048380D01*
X134191238Y-77000761D01*
X134238857Y-76953142D01*
X134286476Y-76857904D01*
X134286476Y-76619809D01*
X134238857Y-76524571D01*
X134191238Y-76476952D01*
X134096000Y-76429333D01*
X133905523Y-76429333D01*
X133810285Y-76476952D01*
X133762666Y-76524571D01*
X133715047Y-76619809D01*
%TO.C,Rs5*%
X136738380Y-106235428D02*
X136262190Y-106568761D01*
X136738380Y-106806857D02*
X135738380Y-106806857D01*
X135738380Y-106425904D01*
X135786000Y-106330666D01*
X135833619Y-106283047D01*
X135928857Y-106235428D01*
X136071714Y-106235428D01*
X136166952Y-106283047D01*
X136214571Y-106330666D01*
X136262190Y-106425904D01*
X136262190Y-106806857D01*
X136690761Y-105854476D02*
X136738380Y-105759238D01*
X136738380Y-105568761D01*
X136690761Y-105473523D01*
X136595523Y-105425904D01*
X136547904Y-105425904D01*
X136452666Y-105473523D01*
X136405047Y-105568761D01*
X136405047Y-105711619D01*
X136357428Y-105806857D01*
X136262190Y-105854476D01*
X136214571Y-105854476D01*
X136119333Y-105806857D01*
X136071714Y-105711619D01*
X136071714Y-105568761D01*
X136119333Y-105473523D01*
X135738380Y-104521142D02*
X135738380Y-104997333D01*
X136214571Y-105044952D01*
X136166952Y-104997333D01*
X136119333Y-104902095D01*
X136119333Y-104664000D01*
X136166952Y-104568761D01*
X136214571Y-104521142D01*
X136309809Y-104473523D01*
X136547904Y-104473523D01*
X136643142Y-104521142D01*
X136690761Y-104568761D01*
X136738380Y-104664000D01*
X136738380Y-104902095D01*
X136690761Y-104997333D01*
X136643142Y-105044952D01*
%TO.C,Rs4*%
X157924571Y-119182380D02*
X157591238Y-118706190D01*
X157353142Y-119182380D02*
X157353142Y-118182380D01*
X157734095Y-118182380D01*
X157829333Y-118230000D01*
X157876952Y-118277619D01*
X157924571Y-118372857D01*
X157924571Y-118515714D01*
X157876952Y-118610952D01*
X157829333Y-118658571D01*
X157734095Y-118706190D01*
X157353142Y-118706190D01*
X158305523Y-119134761D02*
X158400761Y-119182380D01*
X158591238Y-119182380D01*
X158686476Y-119134761D01*
X158734095Y-119039523D01*
X158734095Y-118991904D01*
X158686476Y-118896666D01*
X158591238Y-118849047D01*
X158448380Y-118849047D01*
X158353142Y-118801428D01*
X158305523Y-118706190D01*
X158305523Y-118658571D01*
X158353142Y-118563333D01*
X158448380Y-118515714D01*
X158591238Y-118515714D01*
X158686476Y-118563333D01*
X159591238Y-118515714D02*
X159591238Y-119182380D01*
X159353142Y-118134761D02*
X159115047Y-118849047D01*
X159734095Y-118849047D01*
%TO.C,Rs3*%
X174434571Y-117180380D02*
X174101238Y-116704190D01*
X173863142Y-117180380D02*
X173863142Y-116180380D01*
X174244095Y-116180380D01*
X174339333Y-116228000D01*
X174386952Y-116275619D01*
X174434571Y-116370857D01*
X174434571Y-116513714D01*
X174386952Y-116608952D01*
X174339333Y-116656571D01*
X174244095Y-116704190D01*
X173863142Y-116704190D01*
X174815523Y-117132761D02*
X174910761Y-117180380D01*
X175101238Y-117180380D01*
X175196476Y-117132761D01*
X175244095Y-117037523D01*
X175244095Y-116989904D01*
X175196476Y-116894666D01*
X175101238Y-116847047D01*
X174958380Y-116847047D01*
X174863142Y-116799428D01*
X174815523Y-116704190D01*
X174815523Y-116656571D01*
X174863142Y-116561333D01*
X174958380Y-116513714D01*
X175101238Y-116513714D01*
X175196476Y-116561333D01*
X175577428Y-116180380D02*
X176196476Y-116180380D01*
X175863142Y-116561333D01*
X176006000Y-116561333D01*
X176101238Y-116608952D01*
X176148857Y-116656571D01*
X176196476Y-116751809D01*
X176196476Y-116989904D01*
X176148857Y-117085142D01*
X176101238Y-117132761D01*
X176006000Y-117180380D01*
X175720285Y-117180380D01*
X175625047Y-117132761D01*
X175577428Y-117085142D01*
%TO.C,Rs1*%
X174688571Y-62286380D02*
X174355238Y-61810190D01*
X174117142Y-62286380D02*
X174117142Y-61286380D01*
X174498095Y-61286380D01*
X174593333Y-61334000D01*
X174640952Y-61381619D01*
X174688571Y-61476857D01*
X174688571Y-61619714D01*
X174640952Y-61714952D01*
X174593333Y-61762571D01*
X174498095Y-61810190D01*
X174117142Y-61810190D01*
X175069523Y-62238761D02*
X175164761Y-62286380D01*
X175355238Y-62286380D01*
X175450476Y-62238761D01*
X175498095Y-62143523D01*
X175498095Y-62095904D01*
X175450476Y-62000666D01*
X175355238Y-61953047D01*
X175212380Y-61953047D01*
X175117142Y-61905428D01*
X175069523Y-61810190D01*
X175069523Y-61762571D01*
X175117142Y-61667333D01*
X175212380Y-61619714D01*
X175355238Y-61619714D01*
X175450476Y-61667333D01*
X176450476Y-62286380D02*
X175879047Y-62286380D01*
X176164761Y-62286380D02*
X176164761Y-61286380D01*
X176069523Y-61429238D01*
X175974285Y-61524476D01*
X175879047Y-61572095D01*
%TO.C,R6*%
X143851333Y-66126380D02*
X143518000Y-65650190D01*
X143279904Y-66126380D02*
X143279904Y-65126380D01*
X143660857Y-65126380D01*
X143756095Y-65174000D01*
X143803714Y-65221619D01*
X143851333Y-65316857D01*
X143851333Y-65459714D01*
X143803714Y-65554952D01*
X143756095Y-65602571D01*
X143660857Y-65650190D01*
X143279904Y-65650190D01*
X144708476Y-65126380D02*
X144518000Y-65126380D01*
X144422761Y-65174000D01*
X144375142Y-65221619D01*
X144279904Y-65364476D01*
X144232285Y-65554952D01*
X144232285Y-65935904D01*
X144279904Y-66031142D01*
X144327523Y-66078761D01*
X144422761Y-66126380D01*
X144613238Y-66126380D01*
X144708476Y-66078761D01*
X144756095Y-66031142D01*
X144803714Y-65935904D01*
X144803714Y-65697809D01*
X144756095Y-65602571D01*
X144708476Y-65554952D01*
X144613238Y-65507333D01*
X144422761Y-65507333D01*
X144327523Y-65554952D01*
X144279904Y-65602571D01*
X144232285Y-65697809D01*
%TO.C,R5*%
X129626380Y-88050666D02*
X129150190Y-88384000D01*
X129626380Y-88622095D02*
X128626380Y-88622095D01*
X128626380Y-88241142D01*
X128674000Y-88145904D01*
X128721619Y-88098285D01*
X128816857Y-88050666D01*
X128959714Y-88050666D01*
X129054952Y-88098285D01*
X129102571Y-88145904D01*
X129150190Y-88241142D01*
X129150190Y-88622095D01*
X128626380Y-87145904D02*
X128626380Y-87622095D01*
X129102571Y-87669714D01*
X129054952Y-87622095D01*
X129007333Y-87526857D01*
X129007333Y-87288761D01*
X129054952Y-87193523D01*
X129102571Y-87145904D01*
X129197809Y-87098285D01*
X129435904Y-87098285D01*
X129531142Y-87145904D01*
X129578761Y-87193523D01*
X129626380Y-87288761D01*
X129626380Y-87526857D01*
X129578761Y-87622095D01*
X129531142Y-87669714D01*
%TO.C,R4*%
X141819333Y-113340380D02*
X141486000Y-112864190D01*
X141247904Y-113340380D02*
X141247904Y-112340380D01*
X141628857Y-112340380D01*
X141724095Y-112388000D01*
X141771714Y-112435619D01*
X141819333Y-112530857D01*
X141819333Y-112673714D01*
X141771714Y-112768952D01*
X141724095Y-112816571D01*
X141628857Y-112864190D01*
X141247904Y-112864190D01*
X142676476Y-112673714D02*
X142676476Y-113340380D01*
X142438380Y-112292761D02*
X142200285Y-113007047D01*
X142819333Y-113007047D01*
%TO.C,R3*%
X187538380Y-100242666D02*
X187062190Y-100576000D01*
X187538380Y-100814095D02*
X186538380Y-100814095D01*
X186538380Y-100433142D01*
X186586000Y-100337904D01*
X186633619Y-100290285D01*
X186728857Y-100242666D01*
X186871714Y-100242666D01*
X186966952Y-100290285D01*
X187014571Y-100337904D01*
X187062190Y-100433142D01*
X187062190Y-100814095D01*
X186538380Y-99909333D02*
X186538380Y-99290285D01*
X186919333Y-99623619D01*
X186919333Y-99480761D01*
X186966952Y-99385523D01*
X187014571Y-99337904D01*
X187109809Y-99290285D01*
X187347904Y-99290285D01*
X187443142Y-99337904D01*
X187490761Y-99385523D01*
X187538380Y-99480761D01*
X187538380Y-99766476D01*
X187490761Y-99861714D01*
X187443142Y-99909333D01*
%TO.C,R2*%
X184490380Y-72302666D02*
X184014190Y-72636000D01*
X184490380Y-72874095D02*
X183490380Y-72874095D01*
X183490380Y-72493142D01*
X183538000Y-72397904D01*
X183585619Y-72350285D01*
X183680857Y-72302666D01*
X183823714Y-72302666D01*
X183918952Y-72350285D01*
X183966571Y-72397904D01*
X184014190Y-72493142D01*
X184014190Y-72874095D01*
X183585619Y-71921714D02*
X183538000Y-71874095D01*
X183490380Y-71778857D01*
X183490380Y-71540761D01*
X183538000Y-71445523D01*
X183585619Y-71397904D01*
X183680857Y-71350285D01*
X183776095Y-71350285D01*
X183918952Y-71397904D01*
X184490380Y-71969333D01*
X184490380Y-71350285D01*
%TO.C,R1*%
X157821333Y-56190380D02*
X157488000Y-55714190D01*
X157249904Y-56190380D02*
X157249904Y-55190380D01*
X157630857Y-55190380D01*
X157726095Y-55238000D01*
X157773714Y-55285619D01*
X157821333Y-55380857D01*
X157821333Y-55523714D01*
X157773714Y-55618952D01*
X157726095Y-55666571D01*
X157630857Y-55714190D01*
X157249904Y-55714190D01*
X158773714Y-56190380D02*
X158202285Y-56190380D01*
X158488000Y-56190380D02*
X158488000Y-55190380D01*
X158392761Y-55333238D01*
X158297523Y-55428476D01*
X158202285Y-55476095D01*
%TO.C,OPB730F6*%
X135768095Y-68204761D02*
X135910952Y-68252380D01*
X136149047Y-68252380D01*
X136244285Y-68204761D01*
X136291904Y-68157142D01*
X136339523Y-68061904D01*
X136339523Y-67966666D01*
X136291904Y-67871428D01*
X136244285Y-67823809D01*
X136149047Y-67776190D01*
X135958571Y-67728571D01*
X135863333Y-67680952D01*
X135815714Y-67633333D01*
X135768095Y-67538095D01*
X135768095Y-67442857D01*
X135815714Y-67347619D01*
X135863333Y-67300000D01*
X135958571Y-67252380D01*
X136196666Y-67252380D01*
X136339523Y-67300000D01*
X137196666Y-67252380D02*
X137006190Y-67252380D01*
X136910952Y-67300000D01*
X136863333Y-67347619D01*
X136768095Y-67490476D01*
X136720476Y-67680952D01*
X136720476Y-68061904D01*
X136768095Y-68157142D01*
X136815714Y-68204761D01*
X136910952Y-68252380D01*
X137101428Y-68252380D01*
X137196666Y-68204761D01*
X137244285Y-68157142D01*
X137291904Y-68061904D01*
X137291904Y-67823809D01*
X137244285Y-67728571D01*
X137196666Y-67680952D01*
X137101428Y-67633333D01*
X136910952Y-67633333D01*
X136815714Y-67680952D01*
X136768095Y-67728571D01*
X136720476Y-67823809D01*
X143589523Y-70867142D02*
X143541904Y-70914761D01*
X143399047Y-70962380D01*
X143303809Y-70962380D01*
X143160952Y-70914761D01*
X143065714Y-70819523D01*
X143018095Y-70724285D01*
X142970476Y-70533809D01*
X142970476Y-70390952D01*
X143018095Y-70200476D01*
X143065714Y-70105238D01*
X143160952Y-70010000D01*
X143303809Y-69962380D01*
X143399047Y-69962380D01*
X143541904Y-70010000D01*
X143589523Y-70057619D01*
X139208095Y-67152380D02*
X139208095Y-66152380D01*
X139779523Y-67152380D02*
X139350952Y-66580952D01*
X139779523Y-66152380D02*
X139208095Y-66723809D01*
X135421904Y-70676666D02*
X135898095Y-70676666D01*
X135326666Y-70962380D02*
X135660000Y-69962380D01*
X135993333Y-70962380D01*
X139255714Y-74248571D02*
X139589047Y-74248571D01*
X139731904Y-74772380D02*
X139255714Y-74772380D01*
X139255714Y-73772380D01*
X139731904Y-73772380D01*
%TO.C,OPB730F5*%
X128728095Y-94114761D02*
X128870952Y-94162380D01*
X129109047Y-94162380D01*
X129204285Y-94114761D01*
X129251904Y-94067142D01*
X129299523Y-93971904D01*
X129299523Y-93876666D01*
X129251904Y-93781428D01*
X129204285Y-93733809D01*
X129109047Y-93686190D01*
X128918571Y-93638571D01*
X128823333Y-93590952D01*
X128775714Y-93543333D01*
X128728095Y-93448095D01*
X128728095Y-93352857D01*
X128775714Y-93257619D01*
X128823333Y-93210000D01*
X128918571Y-93162380D01*
X129156666Y-93162380D01*
X129299523Y-93210000D01*
X130204285Y-93162380D02*
X129728095Y-93162380D01*
X129680476Y-93638571D01*
X129728095Y-93590952D01*
X129823333Y-93543333D01*
X130061428Y-93543333D01*
X130156666Y-93590952D01*
X130204285Y-93638571D01*
X130251904Y-93733809D01*
X130251904Y-93971904D01*
X130204285Y-94067142D01*
X130156666Y-94114761D01*
X130061428Y-94162380D01*
X129823333Y-94162380D01*
X129728095Y-94114761D01*
X129680476Y-94067142D01*
X136629523Y-96887142D02*
X136581904Y-96934761D01*
X136439047Y-96982380D01*
X136343809Y-96982380D01*
X136200952Y-96934761D01*
X136105714Y-96839523D01*
X136058095Y-96744285D01*
X136010476Y-96553809D01*
X136010476Y-96410952D01*
X136058095Y-96220476D01*
X136105714Y-96125238D01*
X136200952Y-96030000D01*
X136343809Y-95982380D01*
X136439047Y-95982380D01*
X136581904Y-96030000D01*
X136629523Y-96077619D01*
X132248095Y-93172380D02*
X132248095Y-92172380D01*
X132819523Y-93172380D02*
X132390952Y-92600952D01*
X132819523Y-92172380D02*
X132248095Y-92743809D01*
X128461904Y-96696666D02*
X128938095Y-96696666D01*
X128366666Y-96982380D02*
X128700000Y-95982380D01*
X129033333Y-96982380D01*
X132295714Y-100268571D02*
X132629047Y-100268571D01*
X132771904Y-100792380D02*
X132295714Y-100792380D01*
X132295714Y-99792380D01*
X132771904Y-99792380D01*
%TO.C,OPB730F4*%
X147968095Y-112854761D02*
X148110952Y-112902380D01*
X148349047Y-112902380D01*
X148444285Y-112854761D01*
X148491904Y-112807142D01*
X148539523Y-112711904D01*
X148539523Y-112616666D01*
X148491904Y-112521428D01*
X148444285Y-112473809D01*
X148349047Y-112426190D01*
X148158571Y-112378571D01*
X148063333Y-112330952D01*
X148015714Y-112283333D01*
X147968095Y-112188095D01*
X147968095Y-112092857D01*
X148015714Y-111997619D01*
X148063333Y-111950000D01*
X148158571Y-111902380D01*
X148396666Y-111902380D01*
X148539523Y-111950000D01*
X149396666Y-112235714D02*
X149396666Y-112902380D01*
X149158571Y-111854761D02*
X148920476Y-112569047D01*
X149539523Y-112569047D01*
X155669523Y-115927142D02*
X155621904Y-115974761D01*
X155479047Y-116022380D01*
X155383809Y-116022380D01*
X155240952Y-115974761D01*
X155145714Y-115879523D01*
X155098095Y-115784285D01*
X155050476Y-115593809D01*
X155050476Y-115450952D01*
X155098095Y-115260476D01*
X155145714Y-115165238D01*
X155240952Y-115070000D01*
X155383809Y-115022380D01*
X155479047Y-115022380D01*
X155621904Y-115070000D01*
X155669523Y-115117619D01*
X151288095Y-112212380D02*
X151288095Y-111212380D01*
X151859523Y-112212380D02*
X151430952Y-111640952D01*
X151859523Y-111212380D02*
X151288095Y-111783809D01*
X147501904Y-115736666D02*
X147978095Y-115736666D01*
X147406666Y-116022380D02*
X147740000Y-115022380D01*
X148073333Y-116022380D01*
X151335714Y-119308571D02*
X151669047Y-119308571D01*
X151811904Y-119832380D02*
X151335714Y-119832380D01*
X151335714Y-118832380D01*
X151811904Y-118832380D01*
%TO.C,OPB730F3*%
X173828095Y-106044761D02*
X173970952Y-106092380D01*
X174209047Y-106092380D01*
X174304285Y-106044761D01*
X174351904Y-105997142D01*
X174399523Y-105901904D01*
X174399523Y-105806666D01*
X174351904Y-105711428D01*
X174304285Y-105663809D01*
X174209047Y-105616190D01*
X174018571Y-105568571D01*
X173923333Y-105520952D01*
X173875714Y-105473333D01*
X173828095Y-105378095D01*
X173828095Y-105282857D01*
X173875714Y-105187619D01*
X173923333Y-105140000D01*
X174018571Y-105092380D01*
X174256666Y-105092380D01*
X174399523Y-105140000D01*
X174732857Y-105092380D02*
X175351904Y-105092380D01*
X175018571Y-105473333D01*
X175161428Y-105473333D01*
X175256666Y-105520952D01*
X175304285Y-105568571D01*
X175351904Y-105663809D01*
X175351904Y-105901904D01*
X175304285Y-105997142D01*
X175256666Y-106044761D01*
X175161428Y-106092380D01*
X174875714Y-106092380D01*
X174780476Y-106044761D01*
X174732857Y-105997142D01*
X181679523Y-108957142D02*
X181631904Y-109004761D01*
X181489047Y-109052380D01*
X181393809Y-109052380D01*
X181250952Y-109004761D01*
X181155714Y-108909523D01*
X181108095Y-108814285D01*
X181060476Y-108623809D01*
X181060476Y-108480952D01*
X181108095Y-108290476D01*
X181155714Y-108195238D01*
X181250952Y-108100000D01*
X181393809Y-108052380D01*
X181489047Y-108052380D01*
X181631904Y-108100000D01*
X181679523Y-108147619D01*
X177298095Y-105242380D02*
X177298095Y-104242380D01*
X177869523Y-105242380D02*
X177440952Y-104670952D01*
X177869523Y-104242380D02*
X177298095Y-104813809D01*
X173511904Y-108766666D02*
X173988095Y-108766666D01*
X173416666Y-109052380D02*
X173750000Y-108052380D01*
X174083333Y-109052380D01*
X177345714Y-112338571D02*
X177679047Y-112338571D01*
X177821904Y-112862380D02*
X177345714Y-112862380D01*
X177345714Y-111862380D01*
X177821904Y-111862380D01*
%TO.C,OPB730F2*%
X180768095Y-79874761D02*
X180910952Y-79922380D01*
X181149047Y-79922380D01*
X181244285Y-79874761D01*
X181291904Y-79827142D01*
X181339523Y-79731904D01*
X181339523Y-79636666D01*
X181291904Y-79541428D01*
X181244285Y-79493809D01*
X181149047Y-79446190D01*
X180958571Y-79398571D01*
X180863333Y-79350952D01*
X180815714Y-79303333D01*
X180768095Y-79208095D01*
X180768095Y-79112857D01*
X180815714Y-79017619D01*
X180863333Y-78970000D01*
X180958571Y-78922380D01*
X181196666Y-78922380D01*
X181339523Y-78970000D01*
X181720476Y-79017619D02*
X181768095Y-78970000D01*
X181863333Y-78922380D01*
X182101428Y-78922380D01*
X182196666Y-78970000D01*
X182244285Y-79017619D01*
X182291904Y-79112857D01*
X182291904Y-79208095D01*
X182244285Y-79350952D01*
X181672857Y-79922380D01*
X182291904Y-79922380D01*
X188649523Y-82947142D02*
X188601904Y-82994761D01*
X188459047Y-83042380D01*
X188363809Y-83042380D01*
X188220952Y-82994761D01*
X188125714Y-82899523D01*
X188078095Y-82804285D01*
X188030476Y-82613809D01*
X188030476Y-82470952D01*
X188078095Y-82280476D01*
X188125714Y-82185238D01*
X188220952Y-82090000D01*
X188363809Y-82042380D01*
X188459047Y-82042380D01*
X188601904Y-82090000D01*
X188649523Y-82137619D01*
X184268095Y-79232380D02*
X184268095Y-78232380D01*
X184839523Y-79232380D02*
X184410952Y-78660952D01*
X184839523Y-78232380D02*
X184268095Y-78803809D01*
X180481904Y-82756666D02*
X180958095Y-82756666D01*
X180386666Y-83042380D02*
X180720000Y-82042380D01*
X181053333Y-83042380D01*
X184315714Y-86328571D02*
X184649047Y-86328571D01*
X184791904Y-86852380D02*
X184315714Y-86852380D01*
X184315714Y-85852380D01*
X184791904Y-85852380D01*
%TO.C,OPB730F1*%
X161868095Y-60924761D02*
X162010952Y-60972380D01*
X162249047Y-60972380D01*
X162344285Y-60924761D01*
X162391904Y-60877142D01*
X162439523Y-60781904D01*
X162439523Y-60686666D01*
X162391904Y-60591428D01*
X162344285Y-60543809D01*
X162249047Y-60496190D01*
X162058571Y-60448571D01*
X161963333Y-60400952D01*
X161915714Y-60353333D01*
X161868095Y-60258095D01*
X161868095Y-60162857D01*
X161915714Y-60067619D01*
X161963333Y-60020000D01*
X162058571Y-59972380D01*
X162296666Y-59972380D01*
X162439523Y-60020000D01*
X163391904Y-60972380D02*
X162820476Y-60972380D01*
X163106190Y-60972380D02*
X163106190Y-59972380D01*
X163010952Y-60115238D01*
X162915714Y-60210476D01*
X162820476Y-60258095D01*
X169599523Y-63897142D02*
X169551904Y-63944761D01*
X169409047Y-63992380D01*
X169313809Y-63992380D01*
X169170952Y-63944761D01*
X169075714Y-63849523D01*
X169028095Y-63754285D01*
X168980476Y-63563809D01*
X168980476Y-63420952D01*
X169028095Y-63230476D01*
X169075714Y-63135238D01*
X169170952Y-63040000D01*
X169313809Y-62992380D01*
X169409047Y-62992380D01*
X169551904Y-63040000D01*
X169599523Y-63087619D01*
X165218095Y-60182380D02*
X165218095Y-59182380D01*
X165789523Y-60182380D02*
X165360952Y-59610952D01*
X165789523Y-59182380D02*
X165218095Y-59753809D01*
X161431904Y-63706666D02*
X161908095Y-63706666D01*
X161336666Y-63992380D02*
X161670000Y-62992380D01*
X162003333Y-63992380D01*
X165265714Y-67278571D02*
X165599047Y-67278571D01*
X165741904Y-67802380D02*
X165265714Y-67802380D01*
X165265714Y-66802380D01*
X165741904Y-66802380D01*
%TO.C,C12*%
X172569142Y-74048857D02*
X172616761Y-74096476D01*
X172664380Y-74239333D01*
X172664380Y-74334571D01*
X172616761Y-74477428D01*
X172521523Y-74572666D01*
X172426285Y-74620285D01*
X172235809Y-74667904D01*
X172092952Y-74667904D01*
X171902476Y-74620285D01*
X171807238Y-74572666D01*
X171712000Y-74477428D01*
X171664380Y-74334571D01*
X171664380Y-74239333D01*
X171712000Y-74096476D01*
X171759619Y-74048857D01*
X172664380Y-73096476D02*
X172664380Y-73667904D01*
X172664380Y-73382190D02*
X171664380Y-73382190D01*
X171807238Y-73477428D01*
X171902476Y-73572666D01*
X171950095Y-73667904D01*
X171759619Y-72715523D02*
X171712000Y-72667904D01*
X171664380Y-72572666D01*
X171664380Y-72334571D01*
X171712000Y-72239333D01*
X171759619Y-72191714D01*
X171854857Y-72144095D01*
X171950095Y-72144095D01*
X172092952Y-72191714D01*
X172664380Y-72763142D01*
X172664380Y-72144095D01*
%TD*%
M02*
